<svg width="513" height="512" viewBox="0 0 513 512" fill="none" xmlns="http://www.w3.org/2000/svg">
    <path d="M244.321 507.736C244.15 507.48 241.718 507.31 238.433 507.31C231.99 507.31 215.393 505.219 206.348 503.299C197.644 501.464 188.812 499.246 183.948 497.71C182.198 497.155 178.828 496.088 176.481 495.363C171.404 493.742 160.182 489.39 153.27 486.318C130.785 476.419 108.214 461.998 88.5877 445.059C83.0837 440.28 71.2224 428.376 65.5904 421.976C54.8383 409.688 41.953 391.512 35.1264 378.926C30.7317 370.819 29.153 367.747 28.0437 365.23C27.361 363.694 26.081 360.878 25.185 358.958C20.9184 349.742 13.8357 329.987 11.9583 322.136C11.5743 320.387 10.721 316.846 10.1237 314.243C9.48368 311.683 8.63035 307.928 8.16102 305.923C7.69168 303.918 7.00902 300.078 6.66768 297.39C6.32635 294.702 5.72902 290.947 5.38768 289.07C4.57702 284.846 3.04102 262.958 3.04102 255.875C3.04102 246.659 4.61968 226.136 5.98502 217.816C9.14235 198.616 13.6223 181.55 19.297 167.043C19.7663 165.891 20.321 164.526 20.5343 164.056C20.7477 163.587 21.4303 161.966 22.0277 160.43C23.3503 157.102 23.3077 157.23 26.081 151.043C33.1637 135.342 45.281 115.203 54.6677 103.47C55.9477 101.848 57.825 99.4164 58.8064 98.1364C59.7877 96.8564 61.0677 95.3204 61.5797 94.7231C62.1344 94.1258 64.3104 91.6511 66.4864 89.1764C71.4783 83.4591 86.5824 68.5258 91.5744 64.3871C100.278 57.1764 106.252 52.6964 115.254 46.4671C118.369 44.2911 130.87 36.6964 131.254 36.6964C131.425 36.6964 132.876 35.8858 134.54 34.9471C144.353 29.1871 162.401 21.3364 175.414 17.1551C188.172 13.0164 191.67 12.0351 199.734 10.2431C207.713 8.49376 213.985 7.29909 217.654 6.82976C219.404 6.61643 223.926 6.06176 227.681 5.54976C260.15 1.41109 298.721 4.86709 330.721 14.7658C337.932 16.9844 350.646 21.5924 354.828 23.4698C355.297 23.6831 357.388 24.6218 359.436 25.5604C361.526 26.5418 363.318 27.3098 363.446 27.3098C363.788 27.3098 375.862 33.4538 378.849 35.1604C380.342 36.0138 381.665 36.6964 381.75 36.6964C382.433 36.6964 398.561 47.0218 404.321 51.1178C411.745 56.4084 419.724 62.7231 425.356 67.8004C428.94 71.0004 444.086 86.1898 447.926 90.4564C454.241 97.4538 464.268 110.894 470.497 120.75C474.337 126.851 473.782 125.912 477.494 132.483C483.681 143.448 488.076 152.664 492.172 163.203C493.281 166.019 494.39 168.792 494.604 169.347C494.86 169.944 495.628 172.248 496.31 174.467C497.036 176.728 497.761 178.947 497.974 179.416C498.188 179.886 498.529 180.952 498.742 181.763C498.998 182.574 499.681 185.006 500.321 187.096C500.961 189.23 501.729 192.003 502.028 193.283C504.332 202.883 505.825 210.094 506.508 214.83C506.977 217.902 507.66 221.998 508.001 224.003C508.385 226.008 508.769 231.555 508.897 236.376C509.068 241.198 509.324 245.336 509.537 245.55C510.433 246.744 509.793 272.984 508.641 282.03C506.977 294.958 505.91 301.998 505.185 305.496C503.777 312.024 500.492 325.123 499.681 327.683C499.254 328.963 498.486 331.395 497.974 333.016C496.566 337.582 491.873 349.912 490.038 354.051C489.484 355.288 489.014 356.398 489.014 356.568C489.014 356.995 482.742 369.88 479.5 376.11C475.446 383.875 466.358 398.04 460.086 406.403C447.244 423.512 432.652 438.702 415.116 453.123C412.854 455 410.849 456.536 410.721 456.536C410.593 456.536 409.526 457.262 408.374 458.158C407.222 459.011 405.26 460.462 404.022 461.358C402.785 462.211 400.609 463.79 399.201 464.771C396.982 466.35 395.19 467.544 391.82 469.55C391.436 469.806 389.686 470.83 387.98 471.896C383.414 474.712 380.086 476.504 370.401 481.326C360.844 486.062 361.014 485.976 354.828 488.536C352.481 489.518 350.006 490.542 349.281 490.84C346.764 491.95 343.222 493.187 339.681 494.296C337.676 494.894 335.756 495.576 335.414 495.747C335.03 495.96 334.092 496.259 333.281 496.43C332.47 496.6 331.574 496.899 331.361 497.112C331.105 497.283 329.953 497.667 328.801 497.923C327.606 498.179 326.284 498.52 325.814 498.734C323.724 499.587 312.204 502.275 302.988 504.067C301.452 504.366 299.916 504.707 299.574 504.835C299.233 504.963 296.374 505.304 293.217 505.603C290.06 505.902 286.988 506.286 286.39 506.542C285.793 506.755 281.398 507.054 276.62 507.182C271.884 507.31 267.873 507.608 267.745 507.822C267.404 508.334 244.662 508.248 244.321 507.736ZM249.953 498.35C250.721 496.814 250.764 472.195 249.996 471.598C249.697 471.384 246.753 470.958 243.468 470.659C228.022 469.294 222.604 468.611 212.961 466.734C209.334 466.051 197.26 463.022 194.188 461.998C185.91 459.352 174.817 455.342 171.318 453.678C169.612 452.91 168.118 452.27 167.99 452.27C167.862 452.27 164.62 450.734 160.865 448.856C157.068 446.979 153.74 445.443 153.398 445.443C153.1 445.443 152.374 446.339 151.82 447.491C151.265 448.6 150.198 450.478 149.473 451.63C146.06 457.262 140.044 467.928 139.916 468.654C139.83 469.294 140.769 469.976 144.908 472.067C151.393 475.352 157.11 477.998 161.761 479.875C163.766 480.643 165.985 481.582 166.668 481.88C169.868 483.331 182.838 487.726 188.641 489.39C190.39 489.859 192.524 490.499 193.334 490.755C197.516 492.12 214.412 495.448 223.884 496.814C228.065 497.411 234.849 498.094 238.902 498.35C242.956 498.606 246.71 498.99 247.222 499.203C248.63 499.758 249.356 499.544 249.953 498.35ZM270.305 498.776C272.225 498.52 277.046 498.051 281.014 497.71C285.025 497.368 289.889 496.814 291.894 496.472C300.257 495.064 305.548 494.04 308.961 493.272C310.966 492.803 313.868 492.12 315.404 491.779C316.94 491.438 319.628 490.712 321.377 490.243C323.126 489.731 325.217 489.134 326.028 488.878C330.934 487.47 346.721 481.923 350.134 480.43C351.073 480.003 354.358 478.552 357.388 477.23C364.428 474.115 370.742 470.958 372.065 469.891L373.089 469.038L371.169 465.88C367.201 459.352 362.294 451.032 360.972 448.472C359.649 445.955 359.052 445.486 358.198 446.211C357.985 446.424 357.132 446.851 356.321 447.15C355.51 447.491 353.121 448.558 350.988 449.582C348.897 450.648 345.057 452.312 342.454 453.379C337.974 455.214 336.054 456.024 333.708 457.176C333.11 457.475 331.958 457.859 331.148 458.03C330.337 458.2 329.398 458.499 329.014 458.67C327.777 459.352 322.06 461.102 314.508 463.235C313.228 463.576 311.308 464.131 310.241 464.472C308.065 465.155 303.457 466.136 298.721 466.99C296.972 467.288 293.132 467.971 290.188 468.483C287.244 469.038 283.916 469.507 282.721 469.592C268.684 470.616 262.113 471.214 261.473 471.555C260.705 471.939 260.662 472.664 260.79 484.184C260.833 490.926 261.004 497.07 261.089 497.838L261.302 499.203H264.076C265.612 499.203 268.428 498.99 270.305 498.776ZM250.508 447.96C250.508 437.208 250.38 434.734 249.91 434.222C249.484 433.795 247.649 433.539 243.596 433.368C234.081 432.942 219.702 430.552 209.334 427.651C201.398 425.432 199.222 424.75 194.188 422.83C192.908 422.318 191.158 421.678 190.348 421.336C188.129 420.526 182.241 417.88 176.694 415.278C174.006 413.998 171.745 413.144 171.66 413.315C171.617 413.486 171.105 414.424 170.508 415.363C169.953 416.302 168.972 418.051 168.332 419.203C167.692 420.398 166.54 422.318 165.772 423.555C165.004 424.792 163.809 426.798 163.169 427.992C161.804 430.552 161.59 430.894 159.756 433.752C158.988 434.947 158.348 436.184 158.348 436.568C158.348 436.91 158.988 437.507 159.756 437.891C160.481 438.275 161.804 438.958 162.614 439.427C163.425 439.896 165.26 440.792 166.668 441.432C168.076 442.03 170.294 443.011 171.574 443.608C178.657 446.936 193.633 452.312 202.081 454.659C209.078 456.579 217.441 458.328 224.908 459.438C233.014 460.675 233.74 460.76 240.694 461.23C244.108 461.443 247.478 461.827 248.161 462.04C250.465 462.723 250.508 462.424 250.508 447.96ZM268.3 461.656C270.604 461.443 274.785 461.059 277.601 460.803C280.417 460.547 285.11 459.95 288.054 459.48C295.137 458.371 298.934 457.518 309.814 454.872C315.062 453.55 324.577 450.435 331.361 447.79C341.473 443.864 354.188 437.891 354.188 437.123C354.188 436.739 341.686 415.32 341.046 414.595C340.278 413.742 338.7 413.912 337.505 414.979C337.164 415.32 336.609 415.576 336.31 415.576C336.012 415.576 335.03 415.96 334.177 416.387C333.324 416.856 331.702 417.667 330.508 418.179C329.356 418.648 327.82 419.331 327.094 419.63C326.412 419.971 324.577 420.696 323.041 421.336C321.505 421.934 319.884 422.616 319.414 422.83C318.945 423 316.854 423.683 314.721 424.323C312.63 424.963 310.71 425.646 310.454 425.816C310.241 425.987 308.961 426.371 307.681 426.67C306.401 426.968 305.164 427.31 304.908 427.48C304.694 427.608 302.945 428.078 301.068 428.504C299.19 428.888 296.417 429.528 294.881 429.912C293.345 430.254 290.273 430.808 288.054 431.15C285.836 431.491 282.977 431.96 281.782 432.174C280.545 432.43 275.638 432.899 270.902 433.283C266.124 433.667 261.942 434.136 261.601 434.35C261.046 434.606 260.961 436.483 260.833 446.552C260.748 453.08 260.833 459.267 260.961 460.291C261.217 461.998 261.302 462.083 262.668 462.083C263.478 462.083 265.996 461.912 268.3 461.656ZM377.185 448.088C378.038 447.406 381.153 445.23 384.14 443.224C389.516 439.555 399.542 431.79 404.577 427.438C409.1 423.512 423.777 408.664 427.574 404.184C438.369 391.47 447.414 378.158 455.521 363.139C457.1 360.195 458.55 357.507 458.764 357.166C459.148 356.44 460.769 352.814 463.5 346.67C466.828 339.118 472.289 323.587 474.422 315.523C476.641 307.288 477.921 301.699 478.177 299.31C478.305 297.902 478.689 295.683 479.03 294.36C479.372 293.038 479.926 289.283 480.268 286.04C480.609 282.755 481.078 278.488 481.334 276.483C481.548 274.478 481.761 269.742 481.761 265.944C481.761 262.147 481.974 258.52 482.188 257.88L482.657 256.728L491.574 256.942L500.534 257.198L500.833 256.088C501.174 254.766 500.705 244.568 500.108 240.003C499.852 238.126 499.468 233.731 499.254 230.19C499.041 226.691 498.486 222.083 498.017 219.95C497.59 217.859 497.078 215.043 496.908 213.763C496.609 210.904 495.414 205.486 493.238 196.824C490.806 187.096 490.081 184.792 485.985 173.016C485.26 170.883 482.529 163.971 481.761 162.35C481.548 161.88 480.78 160.046 480.012 158.296C474.209 144.6 462.732 124.974 452.62 111.235C446.134 102.488 434.102 88.6644 428.47 83.4591C427.404 82.4778 424.417 79.6618 421.772 77.1871C416.438 72.1951 408.886 65.9658 401.761 60.7604C392.801 54.1898 382.774 47.7898 381.494 47.7898C380.684 47.7898 379.574 49.3258 374.966 56.7924C372.15 61.3578 372.108 61.4004 369.676 59.7364C366.817 57.8591 357.473 53.2511 348.428 49.2404C343.18 46.9364 330.337 42.4138 322.188 39.9818C307.126 35.4591 285.878 31.8324 271.628 31.3204C268.342 31.2351 264.332 30.9364 262.668 30.6804C260.62 30.3818 258.486 30.4244 255.841 30.7231C253.75 30.9791 248.076 31.3631 243.254 31.5338C238.433 31.7471 233.27 32.1311 231.734 32.4298C230.198 32.6858 227.041 33.1978 224.694 33.4964C218.593 34.3498 207.244 36.6538 201.74 38.1471C200.417 38.5311 198.284 39.0858 197.046 39.4271C194.273 40.1524 189.153 41.7738 188.001 42.2431C187.532 42.4564 185.526 43.1391 183.521 43.7791C181.516 44.4191 179.724 45.1018 179.468 45.2724C179.254 45.4858 178.828 45.6564 178.529 45.6564C178.23 45.6564 177.164 45.9978 176.14 46.4671C175.158 46.8938 173.281 47.6618 172.001 48.2164C167.777 49.9231 167.222 50.1791 155.702 55.8538C149.43 58.9258 144.012 61.4431 143.713 61.4431C143.372 61.4431 142.86 60.8031 142.561 60.0778C142.262 59.3098 141.409 57.7311 140.641 56.5364C139.873 55.3844 138.636 53.2511 137.868 51.8431C137.1 50.4351 136.033 48.5578 135.564 47.7044C135.052 46.8084 134.497 46.0831 134.326 46.0831C134.113 46.0831 132.62 46.8938 130.998 47.9178C129.334 48.8991 127.457 50.0084 126.774 50.3924C126.092 50.7764 124.854 51.5871 124.044 52.2271C123.233 52.8244 122.422 53.3364 122.252 53.3364C122.081 53.3364 120.929 54.1044 119.692 55.0431C118.454 55.9818 117.302 56.7498 117.174 56.7498C117.004 56.7498 115.98 57.4324 114.913 58.2431C109.494 62.3391 107.66 63.7044 106.294 64.6004C105.484 65.1551 103.18 67.0324 101.174 68.7818C99.169 70.4884 97.0784 72.2378 96.5237 72.6218C96.0117 73.0058 91.745 76.9738 87.0944 81.4538C79.2864 88.9631 69.217 99.8858 65.7184 104.579C64.9077 105.646 63.2437 107.822 61.9637 109.4C59.2757 112.771 58.4223 113.966 53.5157 121.39C46.049 132.611 43.5317 136.963 37.7717 148.483C35.3397 153.39 33.3344 157.528 33.3344 157.656C33.3344 157.784 32.9503 158.68 32.5237 159.704C25.9103 174.168 18.8277 197.635 16.0543 214.19C14.3477 224.216 13.7077 229.123 13.7077 232.11C13.7077 233.859 13.409 237.23 13.0677 239.576C12.257 245.08 12.2143 256.856 12.9823 256.899C13.2383 256.899 17.377 256.899 22.1557 256.856C31.6704 256.814 30.9877 256.6 30.7743 259.502C30.7317 260.142 31.1157 264.366 31.585 268.888C32.0543 273.411 32.609 279.726 32.8223 282.883C33.5904 293.166 37.6437 312.152 42.2517 326.616C43.5317 330.712 47.201 340.398 48.865 344.195C49.7184 346.115 50.401 347.779 50.401 347.95C50.401 348.078 52.4063 352.174 54.8383 357.038C62.2197 371.843 68.6624 382.168 78.305 394.84C92.513 413.4 110.518 430.424 130.7 444.291C133.004 445.87 134.966 447.15 135.094 447.15C135.222 447.15 135.862 447.534 136.502 448.003C138.081 449.198 138.849 448.814 140.172 446.168C140.769 444.931 141.793 443.011 142.433 441.859L143.628 439.811L142.561 438.958C141.964 438.488 139.404 436.739 136.801 435.032C129.377 430.211 124.897 426.798 115.254 418.862C109.964 414.467 95.6277 399.96 90.5077 393.816C79.329 380.334 70.9237 367.448 62.7317 351.064C60.641 346.926 58.9343 343.427 58.9343 343.256C58.9343 343.128 58.5504 342.232 58.1237 341.208C54.4544 333.315 48.6517 315.95 46.2624 305.795C44.001 296.11 42.2943 285.016 41.8677 277.422C41.6544 273.368 41.3983 269.912 41.2704 269.742C41.185 269.571 40.9717 267.608 40.8437 265.39C40.673 263.171 40.4597 260.099 40.3744 258.563C39.9903 253.87 42.081 227.331 43.361 220.59C43.745 218.584 44.2997 215.427 44.641 213.55C46.7743 201.56 52.5344 183.256 58.4224 170.03C66.7424 151.256 77.537 133.891 90.8917 117.763C100.364 106.328 118.881 89.1764 130.188 81.3684C133.942 78.7658 143.414 72.5364 143.585 72.5364C143.713 72.5364 144.993 71.8111 146.486 70.8724C152.076 67.4591 160.694 62.9791 166.369 60.5044C169.569 59.0964 172.598 57.7738 173.068 57.6031C175.03 56.7498 179.212 55.1284 181.814 54.2324C183.35 53.6778 184.972 53.0804 185.441 52.9098C191.372 50.4778 206.689 46.4671 218.294 44.3764C231.094 42.0298 255.073 40.1098 255.841 41.3898C256.054 41.7311 254.305 46.9364 253.068 49.7098C252.854 50.1791 252.001 52.1844 251.19 54.1898C247.308 64.0031 245.729 67.6724 245.26 68.1418C244.961 68.3978 242.145 68.8671 238.988 69.1231C235.83 69.3791 232.673 69.7631 231.948 69.9764C231.265 70.1898 229.516 70.4458 228.108 70.6164C226.7 70.7444 224.822 71.0858 223.969 71.2991C223.116 71.5124 221.025 71.9818 219.276 72.2804C214.668 73.1764 210.316 74.1578 209.334 74.6271C208.865 74.7978 207.628 75.2244 206.561 75.4804C205.494 75.7791 203.574 76.2911 202.294 76.6324C201.014 76.9738 199.564 77.4431 199.094 77.6138C198.625 77.8271 197.558 78.2111 196.748 78.5098C195.937 78.8084 194.87 79.1924 194.401 79.3631C193.932 79.5338 192.097 80.2164 190.348 80.8991C188.598 81.5391 186.977 82.2218 186.721 82.4351C186.508 82.6058 186.081 82.7764 185.782 82.7764C184.716 82.7764 167.905 90.9684 165.516 92.6324C163.894 93.7844 162.017 93.6991 161.42 92.4191C161.164 91.8644 159.542 89.0484 157.836 86.1471C156.129 83.2458 154.465 80.3444 154.166 79.7044C153.654 78.4244 152.118 78.0831 151.222 78.9791C150.71 79.4911 150.113 79.8751 147.297 81.4111C146.358 81.9231 143.798 83.5444 141.665 85.0378C136.246 88.7498 136.204 88.7498 133.43 90.8831C132.065 91.9498 130.614 93.0164 130.23 93.2298C129.846 93.4858 128.097 94.8084 126.348 96.2164C110.049 109.187 95.6703 125.059 83.809 143.15C79.5424 149.678 78.3904 151.47 76.9824 154.03C76.257 155.31 75.233 157.144 74.6784 158.083C72.7584 161.496 70.497 165.934 69.0463 169.219C68.2357 171.054 67.0837 173.656 66.4864 174.936C60.769 187.566 55.0944 206.894 52.3637 223.15C51.3397 229.166 49.9743 243.544 49.9743 248.323C49.9743 250.798 49.8037 253.486 49.5904 254.339C49.377 255.235 49.3344 256.088 49.505 256.344C49.761 256.771 53.5584 257.112 62.8597 257.539L68.6624 257.795L68.8757 264.707C69.1743 276.526 70.881 288.515 74.465 303.79C77.537 316.846 85.7717 337.326 93.153 350.083C106.337 372.91 123.19 392.152 143.884 407.982C149.046 411.907 155.062 415.918 156.342 416.216C157.281 416.472 157.537 416.302 158.348 414.723C158.817 413.742 159.926 411.907 160.78 410.584C161.889 408.792 162.188 408.024 161.889 407.512C161.676 407.128 159.5 405.507 157.025 403.843C137.185 390.574 119.436 372.782 107.062 353.71C102.369 346.542 94.3477 332.12 94.3477 330.926C94.3477 330.798 93.7077 329.304 92.897 327.598C88.7157 318.467 83.3397 302.168 82.145 295.043C82.017 294.104 81.505 291.886 81.0784 290.136C80.609 288.344 79.969 283.95 79.6277 280.323C79.2864 276.696 78.689 271.704 78.3477 269.23C77.8783 265.859 77.793 262.232 77.9637 254.723C78.3477 237.4 80.5237 221.272 84.1077 208.856C86.4544 200.835 86.881 199.384 87.393 198.403C87.6917 197.806 87.9477 197.08 87.9477 196.782C87.9477 195.971 90.9344 188.419 93.3237 183.256C95.585 178.307 96.3103 176.814 98.3583 173.016C107.873 155.48 116.918 143.363 130.572 129.795C141.878 118.531 153.91 109.443 168.332 101.208C174.006 97.9658 178.486 95.8324 191.841 90.0298C193.036 89.4751 202.209 86.4884 206.774 85.1231C212.449 83.4591 213.004 83.2884 214.881 82.9898C215.82 82.8618 217.057 82.5631 217.654 82.3498C220.257 81.3684 239.158 78.7231 239.969 79.2351C240.609 79.6191 239.628 83.1604 237.494 88.1098C237.196 88.8351 236.214 91.1391 235.318 93.2298C234.465 95.3631 233.356 97.8804 232.929 98.8618C232.502 99.8431 232.161 100.824 232.161 100.995C232.161 101.592 230.241 106.072 229.516 107.182C229.132 107.779 228.364 108.376 227.809 108.504C227.254 108.632 225.676 109.016 224.268 109.358C222.86 109.742 220.257 110.339 218.508 110.723C216.758 111.107 215.137 111.576 214.881 111.79C214.668 111.96 213.729 112.259 212.79 112.387C211.894 112.558 210.572 112.942 209.804 113.24C209.078 113.582 207.329 114.222 205.921 114.734C204.513 115.246 202.806 115.928 202.081 116.27C201.398 116.568 199.564 117.336 198.028 117.976C196.492 118.616 192.225 120.622 188.513 122.499C184.801 124.334 181.516 125.87 181.217 125.87C180.876 125.87 180.236 125.059 179.724 124.078C179.212 123.054 177.633 120.323 176.225 117.976C174.817 115.63 173.409 113.07 173.068 112.302C172.3 110.51 171.446 110.254 169.996 111.235C169.356 111.662 168.332 112.259 167.734 112.558C166.412 113.198 165.558 113.71 162.742 115.758C161.505 116.611 160.396 117.336 160.268 117.336C159.926 117.336 157.324 119.299 152.502 123.096C150.753 124.504 148.876 125.955 148.364 126.296C146.188 127.79 134.71 138.499 131.809 141.742C118.156 157.144 108.556 171.907 100.961 189.358C99.8517 191.875 98.785 194.307 98.5717 194.776C95.7557 201.176 90.081 221.742 89.441 228.056C89.2703 229.72 88.8864 232.28 88.5877 233.816C87.777 237.742 87.009 248.622 87.1797 253.443L87.3077 257.496L96.609 257.624L105.868 257.71V260.824C105.868 264.28 106.678 272.003 107.958 280.963C109.11 289.326 113.42 305.539 115.894 310.915C116.236 311.64 116.534 312.408 116.534 312.664C116.534 313.816 124.428 329.816 127.628 335.064C136.46 349.699 148.662 363.907 161.462 374.403C166.241 378.328 174.945 384.43 175.756 384.43C176.054 384.43 176.78 383.406 177.377 382.211C177.974 380.974 178.998 379.011 179.681 377.816C180.364 376.664 180.961 375.47 180.961 375.214C180.961 374.915 180.193 374.318 179.297 373.806C174.177 371.16 162.87 361.987 155.745 354.734C143.926 342.702 136.033 331.566 129.121 317.187C127.841 314.499 126.774 312.195 126.774 312.067C126.774 311.939 126.518 311.214 126.177 310.488C122.38 302.168 118.582 289.496 117.601 281.731C117.26 279.342 116.79 276.27 116.534 274.904C115.254 268.248 114.913 255.363 115.681 244.27C116.108 238.296 117.729 228.014 119.094 222.766C119.564 220.974 120.033 219.054 120.204 218.456C123.233 206.296 130.444 190.552 138.55 178.35C144.481 169.432 147.596 165.635 155.745 157.272C171.788 140.888 190.945 129.112 212.961 122.072C217.441 120.664 223.201 119.043 223.884 119.043C224.225 119.043 224.054 121.603 223.67 122.371C222.561 124.376 221.068 128.174 221.324 128.387C221.452 128.515 227.724 128.686 235.276 128.728C245.644 128.814 249.1 128.984 249.484 129.368C250.124 130.051 251.02 140.504 250.55 141.784C250.252 142.638 249.654 142.808 244.705 143.448C238.092 144.302 231.905 145.368 230.454 145.88C229.857 146.094 227.681 146.776 225.548 147.416C223.457 148.056 221.324 148.739 220.854 148.91C220.385 149.123 219.532 149.422 218.934 149.55C218.337 149.72 217.014 150.232 215.948 150.702C214.881 151.214 213.473 151.811 212.748 152.11C211.34 152.707 204.94 155.822 202.124 157.315C199.436 158.766 199.948 159.15 196.662 153.176C195.809 151.64 194.23 148.952 193.164 147.203C192.097 145.454 191.201 143.79 191.201 143.491C191.201 142.083 188.684 143.107 183.393 146.734C181.772 147.8 180.108 148.91 179.724 149.123C175.585 151.512 159.244 166.787 153.953 173.23C143.158 186.328 134.07 203.566 129.761 219.096C129.206 220.974 128.438 223.704 128.012 225.198C127.585 226.648 127.03 229.379 126.817 231.299C126.561 233.176 126.262 234.883 126.177 235.054C125.58 235.992 124.47 248.195 124.428 253.656V257.496L133.686 257.71C138.764 257.838 143.073 258.051 143.244 258.264C143.414 258.435 143.713 261.806 143.926 265.731C144.097 269.656 144.438 273.71 144.694 274.776C144.908 275.843 145.42 278.318 145.761 280.323C146.401 283.822 146.913 285.87 148.406 290.99C149.388 294.488 153.526 304.814 155.446 308.654C159.542 316.76 167.052 327.598 173.025 333.998C174.006 335.022 174.817 336.003 174.902 336.216C175.372 337.539 190.006 349.87 192.822 351.32C194.614 352.259 195.34 352.003 196.108 350.126C196.449 349.272 197.302 347.694 198.028 346.584C199.905 343.598 199.777 342.958 196.662 340.867C185.526 333.358 173.708 320.686 167.052 309.123C161.932 300.248 157.537 289.624 155.617 281.603C153.057 270.808 153.014 270.211 153.014 256.216C153.014 245.208 153.142 242.307 153.782 238.936C155.276 231.086 157.068 224.216 158.561 220.803C158.86 220.12 159.542 218.371 160.097 216.963C162.998 209.539 169.014 199.086 174.518 192.003C178.102 187.352 187.404 178.051 192.054 174.467C208.054 162.051 230.326 153.432 247.35 153.048L252.001 152.963L252.726 156.163C253.452 159.278 254.689 169.731 255.116 176.174C255.329 179.843 255.158 180.056 252.001 180.056C248.46 180.099 236.769 182.232 235.788 183.043C235.574 183.256 234.636 183.512 233.74 183.683C232.886 183.854 232.033 184.152 231.905 184.366C231.777 184.579 231.393 184.75 231.052 184.75C230.412 184.75 226.316 186.584 221.793 188.888C220.172 189.699 218.636 190.296 218.38 190.168C218.081 190.083 216.716 187.907 215.35 185.347C213.985 182.787 212.321 179.928 211.638 178.947C210.998 178.008 210.316 176.686 210.145 176.088C209.761 174.382 208.609 174.638 204.684 177.155C186.721 188.675 173.58 205.699 166.668 226.35C163.382 236.206 161.462 247.299 161.846 254.51C161.974 257.454 162.017 257.496 163.041 257.283C163.638 257.198 167.862 257.112 172.428 257.07H180.748L181.046 263.086C181.686 276.739 187.19 291.502 196.108 303.576C201.1 310.318 212.321 320.814 213.43 319.704C214.412 318.723 218.764 311.086 218.422 310.872C215.052 308.654 207.244 301.187 203.83 296.963C197.814 289.496 193.292 279.683 190.945 268.803C190.305 265.859 190.134 263.384 190.177 255.79C190.177 243.886 190.86 240.387 195.34 229.123C198.838 220.334 207.713 209.326 216.886 202.456C223.286 197.635 235.276 192.131 241.121 191.32C242.188 191.192 243.638 190.894 244.321 190.68C245.046 190.467 248.118 190.126 251.148 189.912C257.334 189.443 265.014 189.87 270.689 190.979C280.161 192.814 292.79 199 299.66 205.144C302.092 207.363 307.852 213.251 309.473 215.256C312.801 219.31 316.556 225.966 318.561 231.299C319.201 233.048 319.884 234.84 320.097 235.31C320.737 236.846 322.145 242.904 322.657 246.19C323.553 252.035 323.638 260.483 322.828 264.963C321.846 270.638 320.908 274.776 320.268 276.27C319.969 276.995 319.457 278.318 319.158 279.256C316.129 289.027 305.249 303.662 296.929 309.123C295.35 310.19 294.028 311.256 294.028 311.555C294.028 311.811 295.009 313.688 296.161 315.736C297.356 317.784 298.294 319.662 298.294 319.96C298.294 320.814 299.788 320.43 301.708 319.064C307.937 314.584 311.521 311.086 316.342 304.771C320.054 299.864 321.121 298.2 323.596 293.55C328.246 284.718 330.337 278.062 332.001 266.84C332.47 263.555 332.982 260.056 333.153 258.99L333.494 257.07L342.412 257.112L351.329 257.198L351.073 250.286C350.774 241.795 349.153 233.304 346.294 225.496C345.654 223.875 345.014 221.955 344.801 221.23C343.948 218.542 338.444 208.216 335.457 203.736C330.465 196.27 323.852 188.974 316.641 183C313.697 180.568 306.742 175.79 306.102 175.79C305.932 175.79 304.054 178.776 301.921 182.446C299.83 186.072 297.868 189.272 297.569 189.528C297.185 189.827 296.673 189.699 295.862 189.102C294.838 188.376 292.193 187.096 287.841 185.176C286.902 184.75 283.617 183.683 278.881 182.232C274.87 181.038 269.537 180.099 264.502 179.758L260.321 179.502V178.094C260.321 177.326 260.492 176.6 260.705 176.472C260.876 176.344 261.302 175.32 261.601 174.211C261.9 173.059 262.284 171.992 262.497 171.736C262.668 171.523 263.308 170.072 263.905 168.536C264.545 167 265.356 165.208 265.697 164.483C266.038 163.8 267.148 161.112 268.214 158.51C270.348 153.134 270.22 153.219 275.254 154.03C289.761 156.334 306.444 163.672 319.926 173.742C329.782 181.08 338.145 190.254 345.014 201.176C347.361 204.931 352.481 215.043 353.121 217.176C353.292 217.774 353.676 218.84 353.974 219.523C355.382 222.68 357.601 230.104 358.241 233.603C360.588 246.83 360.588 246.659 360.588 255.79C360.588 266.755 359.521 275.032 356.918 284.163C356.193 286.723 354.742 291.16 354.188 292.483C348.47 306.051 342.838 315.31 334.902 324.312C328.588 331.48 319.585 339.502 314.934 342.062C312.673 343.342 312.46 344.024 313.782 345.902C314.38 346.798 315.446 348.59 316.129 349.87C316.897 351.278 317.708 352.259 318.177 352.344C319.926 352.6 330.294 344.451 337.42 337.198C347.148 327.299 354.486 316.376 360.801 302.296C365.622 291.544 369.206 276.398 369.889 263.896L370.188 257.923L379.532 257.795L388.876 257.71L388.62 250.328C388.108 236.931 385.462 224.003 380.3 209.71C378.166 203.822 375.052 197.251 371.297 190.808C365.11 180.227 360.161 173.699 351.628 164.952C345.612 158.766 340.62 154.328 335.841 150.787C331.489 147.587 325.644 143.79 325.046 143.79C324.236 143.79 323.169 145.368 319.841 151.342C318.262 154.243 316.726 156.76 316.428 157.016C316.001 157.358 314.422 156.76 310.369 154.755C303.158 151.128 297.142 148.782 289.334 146.606C285.708 145.582 279.692 144.216 278.838 144.216C277.132 144.216 274.828 143.32 274.828 142.638C274.828 141.87 276.876 136.664 281.014 126.936C283.02 122.243 283.788 120.195 283.788 119.726C283.788 118.403 284.897 118.104 287.713 118.659C292.492 119.555 304.737 123.31 309.601 125.4C320.268 130.008 325.302 132.611 333.068 137.646C342.198 143.576 347.66 147.886 355.041 155.054C364.982 164.696 371.98 173.528 378.593 184.792C381.324 189.4 384.737 196.099 386.401 200.11C387.041 201.646 387.809 203.48 388.108 204.163C391.521 212.142 394.508 223.278 396.47 235.523C397.793 243.843 397.878 244.824 397.878 256.003C397.878 267.95 397.494 272.216 395.361 283.822C394.166 290.35 390.668 302.126 388.534 306.99C388.193 307.715 387.425 309.507 386.828 311.043C382.817 320.771 375.777 332.803 368.95 341.55C359.137 354.051 349.75 363.139 337.761 371.63C336.14 372.782 334.134 374.019 333.366 374.36C332.598 374.702 331.873 375.256 331.745 375.598C331.66 375.896 332.214 377.39 333.068 378.84C333.878 380.334 334.561 381.656 334.561 381.827C334.561 381.955 335.03 382.808 335.628 383.662L336.694 385.24L340.022 383.15C346.209 379.182 359.052 368.643 363.318 363.992C364.3 362.926 366.433 360.622 368.097 358.872C374.54 351.918 381.452 342.574 386.486 333.827C398.774 312.707 405.217 291.587 407.094 266.243C407.308 263.086 407.521 259.843 407.521 259.118V257.71L416.609 257.624L425.654 257.496L425.782 249.902C425.868 243.971 425.697 241.283 425.057 237.315C424.588 234.584 424.076 231 423.948 229.336C423.521 224.771 418.444 204.547 416.908 201.176C416.694 200.707 415.756 198.318 414.86 195.843C409.825 182.232 399.969 164.696 390.753 152.963C384.566 145.07 376.588 136.451 370.7 131.331C364.3 125.699 351.969 116.312 347.66 113.752C346.209 112.856 344.673 111.918 344.246 111.662C343.606 111.235 343.308 111.363 342.241 112.643C341.558 113.454 340.961 114.264 340.961 114.435C340.961 115.118 335.201 124.675 334.732 124.888C334.433 124.974 331.148 123.523 327.436 121.646C323.681 119.726 320.481 118.19 320.353 118.19C320.182 118.19 319.073 117.72 317.836 117.166C312.886 114.947 301.068 111.064 296.118 110.04C291.34 109.059 289.334 108.334 289.334 107.608C289.334 106.968 290.401 103.768 292.492 98.1364C292.833 97.3258 293.558 95.5764 294.198 94.2964C294.796 93.0164 295.222 91.7364 295.137 91.4378C294.966 91.0111 291.937 90.8831 281.484 90.8831C270.134 90.8831 267.958 90.7978 267.404 90.2431C266.721 89.5178 266.166 86.1044 266.124 81.9231L266.081 79.1498L269.708 79.0218C271.713 78.9364 274.87 79.0644 276.748 79.3204C290.614 81.1551 290.06 81.0698 297.228 82.6484C305.548 84.4831 318.476 88.6644 325.388 91.7364C325.857 91.9498 326.924 92.3764 327.734 92.7604C336.097 96.3444 347.02 102.232 355.041 107.48C359.649 110.467 368.95 117.422 372.364 120.408C379.361 126.467 383.628 130.435 385.718 132.824C386.998 134.275 388.705 136.152 389.516 136.963C391.478 138.926 397.324 146.094 400.481 150.318C404.236 155.48 412.641 168.408 412.641 169.091C412.641 169.219 413.494 170.798 414.561 172.547C415.628 174.339 416.481 175.875 416.481 175.96C416.481 176.046 417.377 178.008 418.444 180.312C421.004 185.859 421.26 186.414 423.009 190.936C424.673 195.203 427.148 202.456 428.172 206.083C428.513 207.363 429.196 209.795 429.665 211.416C430.945 215.854 433.036 226.904 433.761 232.963C435.297 245.891 435.34 246.958 435.126 259.63C434.998 266.67 434.7 273.283 434.486 274.35C434.23 275.416 433.846 278.318 433.59 280.835C432.31 293.592 426.849 312.92 420.534 327.043C416.14 336.771 409.868 348.12 404.321 356.27C393.697 371.843 377.612 388.696 364.513 397.998C363.404 398.808 361.441 400.259 360.076 401.326C358.753 402.35 357.558 403.203 357.388 403.203C357.217 403.203 356.15 403.886 355.041 404.696C353.932 405.507 352.822 406.19 352.652 406.19C352.438 406.19 351.713 406.659 350.988 407.214L349.708 408.238L351.03 410.072C351.756 411.096 352.993 413.144 353.718 414.638C354.444 416.088 355.254 417.283 355.468 417.283C357.046 417.283 370.657 407.47 379.318 400.088C401.036 381.571 420.022 354.99 430.774 328.152C437.26 312.024 441.74 295.299 442.892 283.182C443.148 280.622 443.446 278.403 443.532 278.275C443.916 277.635 445.11 263.086 445.025 260.526L444.897 257.923L450.444 257.624C453.473 257.411 457.697 257.155 459.788 256.984L463.628 256.643L463.5 250.03C463.414 246.403 463.073 241.496 462.689 239.15C462.348 236.803 461.793 232.195 461.494 228.91C460.897 222.766 459.873 217.219 457.996 209.71C457.398 207.363 456.758 204.59 456.545 203.523C456.332 202.456 455.862 200.75 455.521 199.683C455.18 198.616 454.369 196.142 453.772 194.136C451.852 187.864 449.206 180.867 446.049 173.656C438.284 155.694 425.185 135.043 412.641 120.963C407.222 114.904 395.19 103.086 390.113 98.8618C381.622 91.8218 363.873 79.3631 362.294 79.3631C361.782 79.3631 360.46 81.1978 358.198 84.9951C356.321 88.1098 354.572 91.1818 354.273 91.8218C354.017 92.4618 353.548 93.0164 353.292 93.0164C353.036 93.0164 351.713 92.3764 350.39 91.5658C348.428 90.3284 339.169 85.7631 336.054 84.4404C327.905 81.0271 324.62 79.7471 318.988 77.8698C303.585 72.7498 284.044 68.9098 270.348 68.3978C267.318 68.2698 264.588 68.0138 264.332 67.8004C264.076 67.5871 263.734 65.3684 263.564 62.8511C263.436 60.2911 263.009 56.6644 262.668 54.7018C262.326 52.7391 261.942 48.9844 261.772 46.2964C261.516 41.9444 261.558 41.3898 262.198 41.1338C263.222 40.7498 279.137 41.7311 283.361 42.4564C285.366 42.7978 289.505 43.4804 292.534 43.9498C297.398 44.7604 301.921 45.6564 310.241 47.5764C316.214 48.9418 328.289 52.8671 336.054 55.9391C345.228 59.5231 358.625 66.1364 366.988 71.1284C373.046 74.7551 374.113 75.4378 379.702 79.2778C399.798 93.0591 417.676 110.467 431.542 129.71C433.462 132.355 435.638 135.47 436.321 136.579C440.929 143.875 443.958 148.782 445.878 152.238C448.268 156.504 455.308 170.84 455.308 171.395C455.308 171.566 455.564 172.248 455.905 172.888C456.246 173.486 456.716 174.723 457.014 175.576C457.313 176.43 457.782 177.624 458.081 178.222C458.636 179.288 464.182 196.056 465.292 200.11C466.572 204.59 468.534 213.635 468.961 217.006C469.217 218.84 469.729 221.443 470.028 222.723C470.582 224.899 470.924 228.398 471.948 241.71C472.161 244.526 472.545 248.92 472.758 251.48C473.057 254.595 473.057 257.795 472.801 261.08C472.545 263.811 472.161 268.803 471.948 272.216C471.222 283.096 470.028 292.142 468.278 299.95C467.169 304.771 464.225 316.291 463.969 316.718C463.841 316.931 463.5 317.998 463.201 319.064C462.049 323.16 458.166 333.955 456.161 338.563C451.98 348.248 445.964 360.067 441.612 367.15C441.185 367.875 440.545 368.899 440.204 369.496C438.497 372.483 432.31 381.272 427.745 387.288C419.937 397.486 409.441 408.75 399.585 417.496C394.124 422.36 387.724 427.523 386.23 428.291C385.633 428.59 384.652 429.315 384.054 429.87C382.902 430.979 373.473 437.336 373.004 437.336C372.833 437.336 371.894 437.934 370.87 438.659C368.694 440.28 368.694 440.323 371.766 445.443C374.326 449.71 374.753 449.923 377.185 448.088ZM250.294 410.67V396.59L247.734 396.462C236.94 396.035 221.964 393.091 211.041 389.336C206.433 387.715 202.422 386.179 199.052 384.643C193.334 381.998 191.798 381.4 191.03 381.528C190.39 381.614 188.428 384.6 183.649 392.878C180.065 399.022 177.249 404.312 177.377 404.654C177.505 404.995 178.316 405.592 179.169 405.976C180.022 406.36 181.985 407.342 183.521 408.11C186.977 409.859 193.932 412.803 197.601 414.126C199.137 414.638 201.441 415.491 202.721 415.96C204.812 416.771 215.82 419.8 221.068 421.038C224.78 421.934 232.844 423.214 237.708 423.683C240.396 423.939 244.065 424.323 245.814 424.494C247.564 424.707 249.313 424.835 249.654 424.792C250.209 424.75 250.294 422.872 250.294 410.67ZM270.561 424.11C276.193 423.726 277.388 423.598 285.281 422.232C294.241 420.696 307.937 417.155 312.588 415.15C313.057 414.936 316.129 413.742 319.414 412.462C326.924 409.56 333.622 406.446 334.646 405.464C335.372 404.696 335.329 404.568 333.324 401.07C332.214 399.064 330.636 396.376 329.825 395.011C328.076 392.152 324.961 386.734 323.468 384.003C322.188 381.699 321.249 381.443 318.433 382.723C317.324 383.235 315.276 384.216 313.868 384.856C312.46 385.496 309.985 386.563 308.321 387.16C306.7 387.8 305.036 388.483 304.694 388.696C304.31 388.867 303.372 389.166 302.561 389.336C301.75 389.507 300.513 389.891 299.788 390.19C299.105 390.488 297.441 390.958 296.161 391.256C294.881 391.555 293.644 391.939 293.388 392.11C293.174 392.28 292.022 392.579 290.87 392.75C289.718 392.878 288.396 393.219 287.884 393.432C286.305 394.115 277.26 395.438 267.788 396.376C264.972 396.632 262.241 397.059 261.729 397.272L260.748 397.656V411.011C260.748 418.392 260.876 424.536 261.046 424.707C261.26 424.878 262.156 424.92 263.094 424.75C264.033 424.622 267.404 424.323 270.561 424.11ZM249.996 387.075C250.38 386.776 250.508 383.704 250.422 373.08L250.294 359.47L246.796 359.171C235.916 358.275 224.865 355.416 214.326 350.766C212.15 349.784 210.102 349.016 209.761 349.016C209.42 349.016 208.822 349.656 208.438 350.424C208.054 351.15 207.5 352.088 207.201 352.43C206.902 352.771 205.836 354.606 204.854 356.483C203.83 358.36 202.678 360.366 202.294 360.963C200.161 364.035 195.894 371.715 195.894 372.483C195.894 372.91 201.356 375.598 206.774 377.902C210.23 379.352 220.214 382.638 223.628 383.406C236.641 386.435 248.417 388.056 249.996 387.075ZM271.926 386.776C281.014 385.582 290.102 383.491 298.764 380.59C306.572 377.987 316.086 373.763 316.47 372.696C316.598 372.355 316.257 371.459 315.66 370.691C314.764 369.454 313.398 367.15 309.729 360.536C309.132 359.47 307.809 357.166 306.785 355.416C305.761 353.624 304.609 351.619 304.268 350.936C303.884 350.211 303.286 349.614 302.902 349.528C302.476 349.443 300.897 349.998 299.318 350.723C297.74 351.448 293.857 352.899 290.657 353.966C287.457 354.99 284.47 356.056 284.001 356.227C282.38 356.952 269.964 359.086 264.161 359.598L260.961 359.896L260.748 373.464C260.62 380.931 260.62 387.16 260.705 387.246C261.132 387.63 267.404 387.374 271.926 386.776ZM269.708 349.443C277.345 348.248 280.417 347.48 286.689 345.39C293.516 343.086 297.313 341.464 297.612 340.696C297.825 340.056 297.996 340.312 291.382 328.963C288.438 323.928 285.708 319.15 285.324 318.424C284.641 317.059 283.574 316.632 282.721 317.358C282.465 317.528 281.526 317.955 280.588 318.254C279.649 318.552 278.497 318.936 278.028 319.192C276.236 320.003 267.148 321.923 262.796 322.435L260.748 322.648V336.003C260.748 348.334 260.79 349.443 261.516 349.827C262.54 350.424 264.076 350.382 269.708 349.443ZM249.825 349.614C250.422 349.4 250.508 347.822 250.508 336.259C250.508 329.091 250.337 322.99 250.166 322.734C249.996 322.435 248.63 322.008 247.094 321.752C239.926 320.515 237.58 319.96 233.1 318.296C228.577 316.632 227.468 316.504 227.468 317.486C227.468 317.742 226.828 318.936 226.017 320.216C224.609 322.392 222.305 326.36 219.916 330.67C219.318 331.736 218.209 333.571 217.484 334.723C214.156 339.886 214.156 339.843 215.009 340.568C217.014 342.36 227.98 346.371 235.233 347.992C241.846 349.486 248.289 350.211 249.825 349.614ZM250.422 293.55C250.465 282.883 250.422 273.71 250.294 273.24C250.166 272.643 249.185 271.875 247.692 271.107C243.126 268.803 240.353 264.494 239.372 258.179C238.988 255.576 239.03 254.936 239.841 252.547C242.145 245.72 245.345 242.648 252.513 240.472C253.708 240.088 255.158 239.79 255.713 239.79C257.292 239.79 262.497 241.283 264.417 242.264C266.678 243.416 269.793 246.872 271.286 249.944C272.396 252.163 272.481 252.803 272.481 257.07C272.481 261.422 272.396 261.934 271.244 264.067C270.092 266.286 266.124 270.936 265.398 270.936C265.185 270.936 264.076 271.534 262.881 272.259L260.748 273.582V292.91C260.748 308.995 260.833 312.28 261.345 312.707C262.71 313.859 279.094 309.678 279.094 308.184C279.094 308.056 277.857 305.752 276.321 303.107C274.785 300.462 273.548 297.987 273.548 297.688C273.548 297.347 275.212 296.238 277.26 295.214C280.801 293.422 286.305 289.539 288.31 287.363C288.822 286.808 290.486 284.76 292.022 282.798C296.716 276.782 299.148 270.936 300.641 262.403L301.58 257.07L307.297 256.984C310.454 256.942 313.27 256.899 313.612 256.899C314.081 256.856 314.166 256.046 313.953 252.504C313.313 242.264 310.625 234.115 304.908 225.283C300.385 218.286 296.972 214.616 290.486 209.838C288.524 208.344 286.348 207.704 286.348 208.6C286.348 209.07 281.356 217.134 280.545 217.987C280.033 218.542 279.82 218.499 278.753 217.731C272.652 213.251 258.7 210.435 250.508 212.056C249.441 212.27 247.436 212.654 246.028 212.91C244.662 213.166 243.297 213.55 243.041 213.72C242.828 213.934 241.846 214.318 240.908 214.616C239.969 214.915 238.262 215.64 237.068 216.152C234.764 217.219 233.441 217.432 233.441 216.75C233.441 216.494 232.289 214.275 230.838 211.843C228.961 208.6 227.98 207.363 227.382 207.363C226.358 207.363 222.646 209.795 218.593 213.123C211.169 219.182 203.574 231.128 201.057 240.771C199.905 245.251 198.625 255.918 199.222 256.515C199.478 256.771 202.081 256.984 205.793 257.027L211.894 257.07L212.193 260.44C213.516 275.118 223.116 289.027 236.342 295.47C237.58 296.067 238.732 296.878 238.86 297.219C238.988 297.518 237.878 299.864 236.385 302.339C234.934 304.856 233.697 307.246 233.697 307.715C233.654 308.398 234.337 308.824 236.854 309.763C238.604 310.403 241.505 311.256 243.254 311.64C245.004 312.067 247.052 312.536 247.734 312.75C250.465 313.518 250.294 314.84 250.422 293.55Z" fill="#0A84FF"/>
    </svg>
    